<svg width="33" height="20" viewBox="0 0 33 20" fill="none" xmlns="http://www.w3.org/2000/svg">
<path fill-rule="evenodd" clip-rule="evenodd" d="M16.0844 17.8358C16.0853 17.835 16.0862 17.8343 16.0871 17.8336C16.0878 17.8342 16.0885 17.8347 16.0892 17.8353C18.3748 16.0033 19.8401 13.1761 19.8401 10.0038C19.8401 6.83029 18.3736 4.00205 16.0865 2.17012C13.7994 4.00205 12.3329 6.83029 12.3329 10.0038C12.3329 13.1763 13.7985 16.0038 16.0844 17.8358ZM15.4116 18.3295C13.0408 16.3477 11.5285 13.3535 11.5285 10.0038C11.5285 6.65169 13.0429 3.65564 15.4166 1.6739C13.8433 0.616398 11.9532 0 9.92029 0C4.44146 0 0 4.47715 0 10C0 15.5228 4.44146 20 9.92029 20C11.951 20 13.8392 19.3849 15.4116 18.3295ZM16.7619 18.3291C18.3344 19.3848 20.2228 20 22.2538 20C27.7327 20 32.1741 15.5228 32.1741 10C32.1741 4.47715 27.7327 0 22.2538 0C20.2207 0 18.3304 0.616562 16.7569 1.67432C19.1303 3.65606 20.6445 6.65193 20.6445 10.0038C20.6445 13.3533 19.1325 16.3473 16.7619 18.3291Z" fill="#979797"/>
</svg>
