<svg width="51" height="16" viewBox="0 0 51 16" fill="none" xmlns="http://www.w3.org/2000/svg">
<path fill-rule="evenodd" clip-rule="evenodd" d="M14.2917 0.995446V0.989322L18.8896 0.990733V15.0107L14.2917 15.0093V6.68872H13.9242L11.3521 15.0093H8.29212L5.72001 6.6826H5.35257V15.0094L0.486572 15.0093V0.989258L5.35053 0.989322C5.35053 0.989322 7.28573 0.983197 7.80015 2.82654C8.27783 4.5474 9.63737 9.31601 9.63737 9.31601H10.0048C10.0416 9.18741 11.3705 4.52291 11.842 2.83267C12.3554 0.993051 14.2777 0.995429 14.2916 0.995446L14.2917 0.995446ZM28.4934 2.45916C29.0997 1.10568 30.3918 0.989322 30.3918 0.989322L34.6637 0.989321V15.0094H30.1469V6.68266H29.7795L26.7195 13.5396C26.1132 14.8869 24.7597 15.0094 24.7597 15.0094H20.5974V0.989322H25.0047V9.31601H25.3721L28.4934 2.45916ZM36.4164 15.0094V7.12572H51.0002C50.345 8.97927 48.5833 10.5408 46.5011 10.5408H40.9212V15.0094H36.4164ZM36.0002 1.00098H46.0871C48.801 1.00098 51.0003 2.858 51.0002 5.14962C51.0002 5.44227 50.9687 5.72429 50.8994 6.00098H43.1253C42.4846 6.00108 41.8468 5.9295 41.2285 5.78808C38.565 5.18149 36.5044 3.32092 36.0002 1.00098Z" fill="#979797"/>
</svg>
