<svg width="27" height="20" viewBox="0 0 27 20" fill="none" xmlns="http://www.w3.org/2000/svg">
<path fill-rule="evenodd" clip-rule="evenodd" d="M3.33493 0C1.5127 0 0.0184665 1.48624 0.0184665 3.33945V11.578C0.947804 12.0367 1.91359 12.3303 2.87937 12.3303C4.02738 12.3303 4.64693 11.633 4.64693 10.6789V6.78899H7.48961V10.6606C7.48961 12.1651 6.56028 13.3945 3.40782 13.3945C1.49447 13.3945 0.000244141 12.9725 0.000244141 12.9725V20H4.8656C6.68783 20 8.18206 18.5138 8.18206 16.6606V0H3.33493ZM21.5167 0C19.6945 0 18.2003 1.48488 18.2003 3.33639V6.8011H22.8834C22.9928 6.8011 23.1203 6.8011 23.2114 6.81943C24.2683 6.87443 25.0519 7.42438 25.0519 8.37764C25.0519 9.12924 24.5234 9.77085 23.5394 9.89917V9.93584C24.6145 10.0092 25.4345 10.6141 25.4345 11.549C25.4345 12.5573 24.5234 13.2172 23.3208 13.2172H18.1821V20H23.0474C24.8697 20 26.3639 18.5151 26.3639 16.6636V0H21.5167ZM19.8919 12.0129H21.7945C21.8216 12.0129 21.8669 12.0084 21.9122 12.0038C21.9575 11.9993 22.0028 11.9948 22.03 11.9948C22.3924 11.9223 22.7004 11.5961 22.7004 11.1432C22.7004 10.7083 22.3924 10.3822 22.03 10.2916C21.9757 10.2734 21.8669 10.2734 21.7945 10.2734H19.8919V12.0129ZM21.7945 7.71698C22.1569 7.77134 22.4649 8.06125 22.4649 8.49611C22.4649 8.93098 22.1569 9.22089 21.7945 9.27525C21.7763 9.29337 21.6676 9.29337 21.6133 9.29337H19.8919V7.69886H21.6133C21.6432 7.69886 21.6841 7.70435 21.7209 7.70929C21.7509 7.71332 21.7782 7.71698 21.7945 7.71698ZM9.09115 3.33333C9.09115 1.48352 10.5854 0 12.4076 0H17.273V16.6667C17.273 18.5165 15.7787 20 13.9565 20H9.09115V12.3077C9.92938 13.022 11.3872 13.4799 13.7378 13.37C15.0134 13.315 16.3436 12.967 16.3436 12.967V11.5568C15.6694 11.8864 14.8676 12.2161 13.829 12.2894C12.0432 12.4359 10.9681 11.5568 10.9681 10C10.9681 8.46154 12.0432 7.58242 13.829 7.71062C14.8676 7.78388 15.6694 8.09524 16.3436 8.44322V7.03297C16.3436 7.03297 14.9952 6.68498 13.7378 6.63004C11.3872 6.52015 9.92938 6.97802 9.09115 7.69231V3.33333Z" fill="#979797"/>
</svg>
