<svg width="46" height="16" viewBox="0 0 46 16" fill="none" xmlns="http://www.w3.org/2000/svg">
<path d="M19.8176 15.0083H16.1202L18.431 1.0003H22.1288L19.8176 15.0083ZM13.0097 1.0003L9.48476 10.6351L9.06765 8.56037L9.06803 8.56112L7.82391 2.26156C7.82391 2.26156 7.67347 1.0003 6.06999 1.0003H0.242573L0.174194 1.23749C0.174194 1.23749 1.95623 1.6032 4.04179 2.83861L7.25408 15.0087H11.1065L16.989 1.0003H13.0097ZM42.0917 15.0083H45.4867L42.5266 0.999929H39.5544C38.1819 0.999929 37.8476 2.04386 37.8476 2.04386L32.3332 15.0083H36.1875L36.9583 12.9276H41.6586L42.0917 15.0083ZM38.0231 10.0532L39.9658 4.81106L41.0588 10.0532H38.0231ZM32.6223 4.36891L33.15 1.36077C33.15 1.36077 31.5218 0.75 29.8245 0.75C27.9896 0.75 23.6324 1.541 23.6324 5.38736C23.6324 9.00627 28.7464 9.05124 28.7464 10.9521C28.7464 12.853 24.1593 12.5124 22.6454 11.3137L22.0958 14.459C22.0958 14.459 23.7467 15.25 26.2691 15.25C28.7923 15.25 32.5988 13.9614 32.5988 10.4541C32.5988 6.81199 27.4388 6.47289 27.4388 4.88938C27.4392 3.3055 31.0401 3.50896 32.6223 4.36891Z" fill="#979797"/>
<path d="M9.06802 8.56387L7.8239 2.26431C7.8239 2.26431 7.67347 1.00305 6.06998 1.00305H0.242573L0.174194 1.24024C0.174194 1.24024 2.97507 1.81279 5.66161 3.95798C8.23038 6.00837 9.06802 8.56387 9.06802 8.56387Z" fill="#979797"/>
</svg>
